<mxfile host="65bd71144e">
    <diagram id="e-qr0t-6jxdccmMYuM2Z" name="Page-1">
        <mxGraphModel dx="1511" dy="465" grid="1" gridSize="10" guides="1" tooltips="1" connect="1" arrows="1" fold="1" page="1" pageScale="1" pageWidth="850" pageHeight="1100" math="0" shadow="0">
            <root>
                <mxCell id="0"/>
                <mxCell id="1" parent="0"/>
                <mxCell id="11" value="" style="edgeStyle=none;html=1;" edge="1" parent="1" source="2" target="10">
                    <mxGeometry relative="1" as="geometry"/>
                </mxCell>
                <mxCell id="2" value="Pod: Mongo Express&amp;nbsp;" style="rounded=0;whiteSpace=wrap;html=1;strokeColor=#3700CC;strokeWidth=6;fillColor=#6a00ff;fontColor=#ffffff;" vertex="1" parent="1">
                    <mxGeometry x="365" y="112.5" width="120" height="60" as="geometry"/>
                </mxCell>
                <mxCell id="7" value="" style="edgeStyle=none;html=1;" edge="1" parent="1" source="3" target="2">
                    <mxGeometry relative="1" as="geometry"/>
                </mxCell>
                <mxCell id="3" value="&lt;font style=&quot;font-size: 11px;&quot;&gt;Mongo Express External Service&amp;nbsp;&lt;br&gt;(LoadBalancer)&lt;/font&gt;" style="shape=hexagon;perimeter=hexagonPerimeter2;whiteSpace=wrap;html=1;fixedSize=1;fillColor=#e3c800;fontColor=#000000;strokeColor=#B09500;" vertex="1" parent="1">
                    <mxGeometry x="200" y="105" width="110" height="75" as="geometry"/>
                </mxCell>
                <mxCell id="4" value="mongo-express.com" style="swimlane;whiteSpace=wrap;html=1;fillColor=#76608A;fontColor=#ffffff;strokeColor=default;perimeterSpacing=3;" vertex="1" parent="1">
                    <mxGeometry x="-20" y="70" width="160" height="130" as="geometry"/>
                </mxCell>
                <mxCell id="5" value="Mongo Express Browser" style="text;html=1;align=center;verticalAlign=middle;resizable=0;points=[];autosize=1;" vertex="1" parent="4">
                    <mxGeometry y="60" width="150" height="30" as="geometry"/>
                </mxCell>
                <mxCell id="6" value="" style="edgeStyle=none;html=1;" edge="1" parent="1" source="5" target="3">
                    <mxGeometry relative="1" as="geometry"/>
                </mxCell>
                <mxCell id="13" value="" style="edgeStyle=none;html=1;fontSize=11;" edge="1" parent="1" source="10">
                    <mxGeometry relative="1" as="geometry">
                        <mxPoint x="670" y="142.5" as="targetPoint"/>
                    </mxGeometry>
                </mxCell>
                <mxCell id="10" value="&lt;font style=&quot;font-size: 11px;&quot;&gt;MongoDB Internal Service&amp;nbsp;&lt;br&gt;(clusterIP)&lt;/font&gt;" style="shape=hexagon;perimeter=hexagonPerimeter2;whiteSpace=wrap;html=1;fixedSize=1;fillColor=#e3c800;fontColor=#000000;strokeColor=#B09500;" vertex="1" parent="1">
                    <mxGeometry x="520" y="105" width="110" height="75" as="geometry"/>
                </mxCell>
                <mxCell id="14" value="Pod: MongoDB" style="rounded=0;whiteSpace=wrap;html=1;strokeColor=#3700CC;strokeWidth=6;fillColor=#6a00ff;fontColor=#ffffff;" vertex="1" parent="1">
                    <mxGeometry x="680" y="112.5" width="120" height="60" as="geometry"/>
                </mxCell>
            </root>
        </mxGraphModel>
    </diagram>
</mxfile>